<svg width="14" height="14" viewBox="0 0 14 14" fill="none" xmlns="http://www.w3.org/2000/svg">
<mask id="path-1-inside-1_576_135" fill="white">
<path d="M8.93831 0.547039C8.97081 0.51454 9.00447 0.484902 9.04303 0.459886C9.35147 0.259772 10.8921 -0.593212 12.5662 1.08088C14.2403 2.75497 13.3873 4.29564 13.1872 4.60408C13.1622 4.64264 13.1326 4.6763 13.1001 4.7088L6.01104 11.7978C5.88857 11.9203 5.73639 12.0089 5.56941 12.0548L1.7778 13.0989C1.0297 13.3049 0.342205 12.6174 0.548205 11.8693L1.59227 8.0777C1.63825 7.91071 1.72681 7.75854 1.84928 7.63607L8.93831 0.547039Z"/>
</mask>
<path d="M7.54501 3.08538L10.6663 6.20669L12.0805 4.79248L8.95922 1.67116L7.54501 3.08538ZM1.7778 13.0989L1.24684 11.1707L1.7778 13.0989ZM0.548205 11.8693L2.47644 12.4003L0.548205 11.8693ZM1.59227 8.0777L-0.33596 7.54673L1.59227 8.0777ZM5.56941 12.0548L5.03845 10.1266L5.56941 12.0548ZM13.1872 4.60408L11.5094 3.51552L13.1872 4.60408ZM11.6859 3.29458L4.59683 10.3836L7.42525 13.212L14.5143 6.12301L11.6859 3.29458ZM3.26349 9.05028L10.3525 1.96125L7.5241 -0.867174L0.435068 6.22186L3.26349 9.05028ZM5.03845 10.1266L1.24684 11.1707L2.30876 15.0271L6.10038 13.9831L5.03845 10.1266ZM2.47644 12.4003L3.5205 8.60866L-0.33596 7.54673L-1.38003 11.3383L2.47644 12.4003ZM10.1316 2.13769C10.1284 2.13974 10.2425 2.07194 10.384 2.06546C10.4394 2.06292 10.5142 2.06847 10.6165 2.10897C10.7204 2.15009 10.9052 2.24824 11.152 2.49509L13.9804 -0.333335C12.7609 -1.55292 11.4165 -1.98603 10.201 -1.93035C9.07653 -1.87883 8.26605 -1.42008 7.95447 -1.21792L10.1316 2.13769ZM11.152 2.49509C11.3989 2.74194 11.497 2.92675 11.5381 3.0306C11.5786 3.13287 11.5842 3.20767 11.5816 3.26307C11.5752 3.40459 11.5074 3.51867 11.5094 3.51552L14.865 5.69264C15.0672 5.38105 15.5259 4.57057 15.5775 3.44613C15.6331 2.23062 15.2 0.886249 13.9804 -0.333335L11.152 2.49509ZM1.24684 11.1707C1.99494 10.9647 2.68244 11.6522 2.47644 12.4003L-1.38003 11.3383C-1.99803 13.5827 0.0644504 15.6451 2.30876 15.0271L1.24684 11.1707ZM0.435068 6.22186C0.067663 6.58926 -0.198019 7.04579 -0.33596 7.54673L3.5205 8.60866C3.47452 8.77564 3.38596 8.92782 3.26349 9.05028L0.435068 6.22186ZM4.59683 10.3836C4.71929 10.2611 4.87147 10.1726 5.03845 10.1266L6.10038 13.9831C6.60132 13.8451 7.05785 13.5794 7.42525 13.212L4.59683 10.3836ZM14.5143 6.12301C14.6031 6.0342 14.7368 5.89035 14.865 5.69264L11.5094 3.51552C11.5877 3.39492 11.662 3.31839 11.6859 3.29458L14.5143 6.12301ZM10.3525 1.96125C10.3287 1.98506 10.2522 2.05945 10.1316 2.13769L7.95447 -1.21792C7.75675 -1.08964 7.6129 -0.95598 7.5241 -0.867174L10.3525 1.96125Z" fill="#222222" mask="url(#path-1-inside-1_576_135)"/>
</svg>
